<?xml version="1.0" encoding="UTF-8"?>
<svg version="1.1" xmlns="http://www.w3.org/2000/svg" width="320" height="320">
<path d="M0 0 C3.13543819 0.00849383 6.26903801 -0.02032523 9.40429688 -0.05200195 C34.90086452 -0.14112928 58.06863262 6.25191392 80.40429688 18.44604492 C81.47421875 19.02354492 82.54414063 19.60104492 83.64648438 20.19604492 C94.98543968 26.55764062 104.9940776 34.51193794 114.40429688 43.44604492 C114.90574219 43.91494141 115.4071875 44.38383789 115.92382812 44.86694336 C140.79682715 68.2421158 161.77667033 103.87959893 163.51673889 138.69584656 C163.58605815 141.41889268 163.62160506 144.14016043 163.64257812 146.86401367 C163.65064987 147.87587234 163.65872162 148.88773102 163.66703796 149.93025208 C163.68084391 152.07441517 163.6915816 154.21859991 163.69946289 156.36279297 C163.71089589 158.52008671 163.73120687 160.67735416 163.76098633 162.83447266 C164.1327416 189.81892115 158.34635091 213.74043001 145.40429688 237.44604492 C144.82679688 238.5159668 144.24929688 239.58588867 143.65429688 240.68823242 C137.29270117 252.02718772 129.33840386 262.03582565 120.40429688 271.44604492 C119.93540039 271.94749023 119.46650391 272.44893555 118.98339844 272.96557617 C95.60822599 297.8385752 59.97074286 318.81841838 25.15449524 320.55848694 C22.43144912 320.6278062 19.71018137 320.66335311 16.98632812 320.68432617 C15.97446945 320.69239792 14.96261078 320.70046967 13.92008972 320.70878601 C11.77592663 320.72259196 9.63174188 320.73332965 7.48754883 320.74121094 C5.33025508 320.75264393 3.17298763 320.77295492 1.01586914 320.80273438 C-25.96857935 321.17448965 -49.89008821 315.38809896 -73.59570312 302.44604492 C-74.665625 301.86854492 -75.73554687 301.29104492 -76.83789062 300.69604492 C-88.17684593 294.33444922 -98.18548385 286.38015191 -107.59570312 277.44604492 C-108.09714844 276.97714844 -108.59859375 276.50825195 -109.11523438 276.02514648 C-133.9882334 252.64997404 -154.96807658 217.01249091 -156.70814514 182.19624329 C-156.7774644 179.47319717 -156.81301131 176.75192942 -156.83398438 174.02807617 C-156.84205612 173.0162175 -156.85012787 172.00435883 -156.85844421 170.96183777 C-156.87225016 168.81767468 -156.88298785 166.67348993 -156.89086914 164.52929688 C-156.90230214 162.37200313 -156.92261312 160.21473568 -156.95239258 158.05761719 C-157.53303917 115.91046008 -141.34359501 77.90584759 -112.16772461 47.61547852 C-103.92945209 39.25334174 -95.46649777 31.8064957 -85.59570312 25.44604492 C-84.92716309 25.01356445 -84.25862305 24.58108398 -83.56982422 24.13549805 C-68.74775361 14.69097867 -52.64680909 7.77378135 -35.59570312 3.44604492 C-34.60699219 3.1849292 -33.61828125 2.92381348 -32.59960938 2.65478516 C-21.76170064 0.11785254 -11.09716663 -0.04569219 0 0 Z " fill="#F99F0B" transform="translate(156.595703125,-0.446044921875)"/>
<path d="M0 0 C1.22871826 0.01353516 2.45743652 0.02707031 3.72338867 0.04101562 C23.29086629 0.48676175 39.59932777 7.41915485 54.125 20.5 C54.81980469 21.10199219 55.51460937 21.70398438 56.23046875 22.32421875 C68.35305479 33.50888711 76.41637171 50.44458649 77.24609375 66.90185547 C78.07861175 89.81691336 73.96316574 109.23048726 58.125 126.5 C57.49980469 127.20511719 56.87460938 127.91023438 56.23046875 128.63671875 C42.66047233 143.14638906 23.36132822 150.55715811 3.83984375 151.625 C-16.72530977 152.16002838 -35.78247169 145.25431206 -51.375 131.8828125 C-64.58657093 119.29053396 -74.61353909 101.25609994 -75.30859375 82.79296875 C-75.33218016 80.42459625 -75.33289926 78.05590209 -75.3125 75.6875 C-75.30420166 74.44863037 -75.29590332 73.20976074 -75.28735352 71.93334961 C-74.94279531 53.31617106 -68.28466686 38.44290755 -55.875 24.5 C-54.93527344 23.43652344 -54.93527344 23.43652344 -53.9765625 22.3515625 C-40.11400428 7.58369435 -20.00034359 -0.32020424 0 0 Z " fill="#FEFEFD" transform="translate(159.875,73.5)"/>
<path d="M0 0 C1.40777053 0.61965523 2.81675639 1.23655258 4.2265625 1.8515625 C16.53914189 7.30995258 28.47888914 13.53582542 39 22 C15.25582138 50.74295306 -19.94987621 70.07369774 -57 75 C-60.47216392 75.17353402 -63.94190243 75.21151631 -67.41796875 75.23828125 C-68.93575676 75.25038887 -68.93575676 75.25038887 -70.48420715 75.26274109 C-72.62837025 75.27654703 -74.77255499 75.28728473 -76.91674805 75.29516602 C-79.07404179 75.30659901 -81.23130924 75.32691 -83.38842773 75.35668945 C-110.37287623 75.72844473 -134.29438509 69.94205404 -158 57 C-159.60488281 56.13375 -159.60488281 56.13375 -161.2421875 55.25 C-176.37711869 46.75871393 -188.9267572 35.3357046 -201 23 C-197.91983416 19.68059798 -194.54986018 17.17101248 -190.75 14.75 C-190.14518799 14.36303955 -189.54037598 13.9760791 -188.91723633 13.57739258 C-181.88286737 9.17115075 -174.49263544 5.55170381 -167 2 C-166.18015625 1.60039062 -165.3603125 1.20078125 -164.515625 0.7890625 C-151.08545241 -5.52210883 -136.46084627 -8.98798948 -122 -12 C-121.21012695 -12.16806152 -120.42025391 -12.33612305 -119.60644531 -12.50927734 C-82.18696908 -20.11774649 -34.42897781 -16.70215293 0 0 Z " fill="#FEFEFD" transform="translate(241,245)"/>
<path d="M0 0 C0.66 0.33 1.32 0.66 2 1 C-3.94 6.94 -9.88 12.88 -16 19 C-16.66 18.67 -17.32 18.34 -18 18 C-6.66287016 5.33029613 -6.66287016 5.33029613 0 0 Z " fill="#F7E6D7" transform="translate(116,87)"/>
<path d="M0 0 C0.66 0.33 1.32 0.66 2 1 C0.02 3.31 -1.96 5.62 -4 8 C-4.99 7.01 -5.98 6.02 -7 5 C-4.69 3.35 -2.38 1.7 0 0 Z " fill="#FAE7D1" transform="translate(47,262)"/>
</svg>
