<?xml version="1.0" encoding="UTF-8"?>
<svg version="1.1" xmlns="http://www.w3.org/2000/svg" width="320" height="320">
<path d="M0 0 C1.1088707 -0.01058945 1.1088707 -0.01058945 2.24014282 -0.02139282 C32.97641168 -0.24840581 32.97641168 -0.24840581 45.9765625 3.203125 C47.16427246 3.50911621 47.16427246 3.50911621 48.37597656 3.82128906 C83.10816259 12.97395949 115.21536638 32.22805251 136.9765625 61.203125 C137.76289063 62.21246094 138.54921875 63.22179688 139.359375 64.26171875 C157.70246115 88.33928055 169.98516729 119.77057304 170.1796875 150.2265625 C170.19027695 151.3354332 170.19027695 151.3354332 170.20108032 152.46670532 C170.42809331 183.20297418 170.42809331 183.20297418 166.9765625 196.203125 C166.67057129 197.39083496 166.67057129 197.39083496 166.35839844 198.60253906 C163.46054115 209.59921148 159.73404424 220.08357509 154.85449219 230.35351562 C153.99470703 232.16489837 153.16110264 233.98863427 152.328125 235.8125 C135.91171077 270.49506527 103.56860885 298.3699292 67.796875 311.5625 C61.9026642 313.61907545 55.99500173 315.54313913 49.9765625 317.203125 C49.00710693 317.48865234 48.03765137 317.77417969 47.03881836 318.06835938 C36.10808036 320.88833069 25.08065101 320.72647022 13.85717773 320.70410156 C10.44492944 320.70313375 7.03496975 320.74477418 3.62304688 320.7890625 C-37.66470314 321.0140175 -75.14116515 303.03809525 -104.609375 274.67675781 C-117.60676577 261.77008487 -127.47514685 246.83105493 -135.0234375 230.203125 C-135.55453125 229.07777344 -136.085625 227.95242187 -136.6328125 226.79296875 C-141.11598019 216.91382345 -144.28855919 206.68787786 -147.0234375 196.203125 C-147.20567871 195.51927734 -147.38791992 194.83542969 -147.57568359 194.13085938 C-152.92549457 172.94454329 -152.6226062 145.29232903 -147.0234375 124.203125 C-146.71744629 123.01541504 -146.71744629 123.01541504 -146.40527344 121.80371094 C-137.25260301 87.07152491 -117.99850999 54.96432112 -89.0234375 33.203125 C-88.01410156 32.41679688 -87.00476563 31.63046875 -85.96484375 30.8203125 C-61.88728195 12.47722635 -30.45598946 0.19452021 0 0 Z " fill="#F59E0B" transform="translate(150.0234375,-0.203125)"/>
<path d="M0 0 C2.51686865 0.6754737 5.00592715 1.16875303 7.57104492 1.62084961 C13.51314206 2.75904752 19.00775553 4.89715316 24.63354492 7.08178711 C25.64932617 7.46850586 26.66510742 7.85522461 27.71166992 8.25366211 C29.73236567 9.02567151 31.75056232 9.80425627 33.76611328 10.58959961 C35.5702722 11.29252266 37.3779472 11.98655101 39.19042969 12.66772461 C45.93771608 15.25273705 52.22962208 18.50517774 58.57104492 21.95678711 C59.57844727 22.49174805 60.58584961 23.02670898 61.6237793 23.57788086 C68.73120164 27.42640151 75.20580053 31.81537878 81.63354492 36.70678711 C82.96655728 37.70721493 84.29977182 38.70737373 85.63354492 39.70678711 C74.40239289 59.32061059 60.83402231 77.03765278 42.63354492 90.70678711 C41.11954102 91.8862793 41.11954102 91.8862793 39.57495117 93.08959961 C22.82687876 105.84883734 3.85426769 114.12957468 -16.36645508 119.70678711 C-17.33591064 119.99231445 -18.30536621 120.2778418 -19.30419922 120.57202148 C-30.23493721 123.3919928 -41.26236657 123.23013233 -52.48583984 123.20776367 C-55.89808814 123.20679586 -59.30804782 123.24843629 -62.7199707 123.29272461 C-104.00772072 123.51767961 -141.48418273 105.54175736 -170.95239258 77.18041992 C-177.22584444 70.95075484 -182.66901909 64.20962872 -187.80395508 57.01928711 C-188.53026123 56.00475464 -188.53026123 56.00475464 -189.27124023 54.96972656 C-192.85371043 49.80286999 -195.6761974 44.38345749 -198.36645508 38.70678711 C-178.95774612 25.3956064 -158.86365088 13.84061293 -136.36645508 6.70678711 C-134.03070195 5.83826724 -131.69728389 4.96343697 -129.36645508 4.08178711 C-89.90630818 -9.81138047 -40.23736039 -11.55258683 0 0 Z " fill="#FEFEFE" transform="translate(216.366455078125,197.293212890625)"/>
<path d="M0 0 C0.62632324 0.24637207 1.25264648 0.49274414 1.89794922 0.74658203 C11.70869507 4.76678462 18.70865165 10.54921984 26 18 C27.10988281 19.06154297 27.10988281 19.06154297 28.2421875 20.14453125 C40.42796293 32.54367629 46.26288417 50.83207458 46.5 67.9375 C46.26682005 86.17256399 40.27470211 103.33101124 28 117 C27.27167969 117.82113281 26.54335937 118.64226562 25.79296875 119.48828125 C16.00381103 129.91001782 4.62323989 135.96045588 -9 140 C-10.22396484 140.36931641 -10.22396484 140.36931641 -11.47265625 140.74609375 C-30.44652954 145.46515314 -50.58605717 140.98641696 -67.14990234 131.20654297 C-72.36934418 127.80267895 -76.7023422 123.47562829 -81 119 C-81.67546875 118.32066406 -82.3509375 117.64132813 -83.046875 116.94140625 C-91.04248104 108.43280779 -95.9456285 98.17378117 -99 87 C-99.22558594 86.2265625 -99.45117188 85.453125 -99.68359375 84.65625 C-104.41809963 65.58761943 -100.04242773 45.50891509 -90.20214844 28.84570312 C-86.79848287 23.61992902 -82.46715903 19.31222866 -78 15 C-77.29359375 14.26265625 -76.5871875 13.5253125 -75.859375 12.765625 C-56.19470394 -6.59882208 -24.78743721 -9.80486348 0 0 Z " fill="#FEFEFE" transform="translate(188,38)"/>
</svg>
