<?xml version="1.0" encoding="UTF-8"?>
<!DOCTYPE svg PUBLIC "-//W3C//DTD SVG 1.1//EN" "http://www.w3.org/Graphics/SVG/1.1/DTD/svg11.dtd">
<svg xmlns="http://www.w3.org/2000/svg" version="1.1" width="1085px" height="609px" style="shape-rendering:geometricPrecision; text-rendering:geometricPrecision; image-rendering:optimizeQuality; fill-rule:evenodd; clip-rule:evenodd" xmlns:xlink="http://www.w3.org/1999/xlink">
<g><path style="opacity:1" fill="#fdfdfc" d="M 740.5,285.5 C 736.771,283.549 733.271,281.216 730,278.5C 729.314,264.815 728.481,251.148 727.5,237.5C 716.617,235.946 705.951,233.446 695.5,230C 693.5,229.333 691.5,229.333 689.5,230C 683.402,241.536 677.069,252.869 670.5,264C 665.977,264.32 661.477,264.82 657,265.5C 653.85,265.022 651.516,263.355 650,260.5C 643.869,251.07 637.369,241.903 630.5,233C 628.833,232.333 627.167,232.333 625.5,233C 615.5,236.333 605.5,239.667 595.5,243C 594.619,243.708 593.953,244.542 593.5,245.5C 592.356,250.888 592.689,256.221 594.5,261.5C 595.603,269.452 595.77,277.452 595,285.5C 591.236,287.632 587.736,290.132 584.5,293C 581.97,294.422 579.303,294.755 576.5,294C 565.608,289.304 554.774,284.471 544,279.5C 541.719,280.776 539.719,282.443 538,284.5C 532.407,292.016 526.574,299.349 520.5,306.5C 519.386,307.723 519.219,309.056 520,310.5C 527.576,319.987 534.909,329.654 542,339.5C 541.06,346.092 538.893,352.425 535.5,358.5C 534.975,359.192 534.308,359.692 533.5,360C 521.151,362.417 508.818,364.75 496.5,367C 495.667,367.833 494.833,368.667 494,369.5C 493.398,375.877 492.565,382.211 491.5,388.5C 489.689,393.779 489.356,399.112 490.5,404.5C 503.524,409.099 516.358,414.099 529,419.5C 529.378,424.301 530.378,428.968 532,433.5C 532.667,436.167 532.667,438.833 532,441.5C 525.167,447.667 518.333,453.833 511.5,460C 508.238,462.754 505.571,465.921 503.5,469.5C 508.394,479.62 513.56,489.62 519,499.5C 519.725,500.059 520.558,500.392 521.5,500.5C 533.015,497.777 544.515,495.11 556,492.5C 557.167,492.667 558.333,492.833 559.5,493C 562.369,496.038 565.369,498.871 568.5,501.5C 483.398,509.698 417.564,478.031 371,406.5C 351.826,373.805 342.659,338.471 343.5,300.5C 350.827,302.024 357.993,304.024 365,306.5C 369.188,316.564 372.688,326.898 375.5,337.5C 378.087,338.816 381.087,339.483 384.5,339.5C 387.686,339.498 390.686,339.165 393.5,338.5C 398.434,338.28 403.267,337.613 408,336.5C 410.663,325.199 413.33,313.865 416,302.5C 421.178,299.483 426.678,296.983 432.5,295C 433.833,294.333 435.167,294.333 436.5,295C 444.804,302.652 453.637,309.485 463,315.5C 463.833,315.333 464.667,315.167 465.5,315C 473.167,309.333 480.833,303.667 488.5,298C 489.554,296.612 489.72,295.112 489,293.5C 484.823,283.539 480.99,273.539 477.5,263.5C 479.583,258.182 482.583,253.349 486.5,249C 498.775,250.093 511.108,250.926 523.5,251.5C 526.696,241.253 530.363,231.086 534.5,221C 534.241,219.739 533.574,218.739 532.5,218C 523.578,211.622 514.744,205.122 506,198.5C 505.171,193.136 505.337,187.802 506.5,182.5C 516.41,176.976 526.41,171.643 536.5,166.5C 537.657,163.216 537.824,159.882 537,156.5C 534.918,148.921 533.251,141.255 532,133.5C 531.25,132.874 530.416,132.374 529.5,132C 517.783,131.547 506.117,130.547 494.5,129C 490.773,124.461 488.773,119.294 488.5,113.5C 492.712,110.944 497.378,109.61 502.5,109.5C 509.098,109.375 515.431,108.375 521.5,106.5C 596.933,100.973 657.766,127.973 704,187.5C 725.339,216.675 737.505,249.342 740.5,285.5 Z"/></g>
<g><path style="opacity:1" fill="#fce1c5" d="M 521.5,106.5 C 515.431,108.375 509.098,109.375 502.5,109.5C 508.556,107.547 514.889,106.547 521.5,106.5 Z"/></g>
<g><path style="opacity:1" fill="#465569" d="M 488.5,113.5 C 488.773,119.294 490.773,124.461 494.5,129C 506.117,130.547 517.783,131.547 529.5,132C 530.416,132.374 531.25,132.874 532,133.5C 533.251,141.255 534.918,148.921 537,156.5C 537.824,159.882 537.657,163.216 536.5,166.5C 526.41,171.643 516.41,176.976 506.5,182.5C 505.337,187.802 505.171,193.136 506,198.5C 514.744,205.122 523.578,211.622 532.5,218C 533.574,218.739 534.241,219.739 534.5,221C 530.363,231.086 526.696,241.253 523.5,251.5C 511.108,250.926 498.775,250.093 486.5,249C 482.583,253.349 479.583,258.182 477.5,263.5C 480.99,273.539 484.823,283.539 489,293.5C 489.72,295.112 489.554,296.612 488.5,298C 480.833,303.667 473.167,309.333 465.5,315C 464.667,315.167 463.833,315.333 463,315.5C 453.637,309.485 444.804,302.652 436.5,295C 435.167,294.333 433.833,294.333 432.5,295C 426.678,296.983 421.178,299.483 416,302.5C 413.33,313.865 410.663,325.199 408,336.5C 403.267,337.613 398.434,338.28 393.5,338.5C 387.409,338.789 381.409,338.455 375.5,337.5C 372.688,326.898 369.188,316.564 365,306.5C 357.993,304.024 350.827,302.024 343.5,300.5C 343.78,289.758 344.78,279.091 346.5,268.5C 390.252,282.361 426.752,271.694 456,236.5C 464.959,223.453 470.459,209.119 472.5,193.5C 473.165,189.849 473.499,186.015 473.5,182C 473.659,175.926 472.993,170.092 471.5,164.5C 468.523,150.543 462.856,137.877 454.5,126.5C 465.129,120.527 476.462,116.194 488.5,113.5 Z"/></g>
<g><path style="opacity:1" fill="#fefdfc" d="M 454.5,126.5 C 462.856,137.877 468.523,150.543 471.5,164.5C 472.245,174.148 472.578,183.815 472.5,193.5C 470.459,209.119 464.959,223.453 456,236.5C 426.752,271.694 390.252,282.361 346.5,268.5C 358.434,209.755 389.767,164.589 440.5,133C 444.869,130.115 449.536,127.949 454.5,126.5 Z"/></g>
<g><path style="opacity:1" fill="#b1bcc2" d="M 471.5,164.5 C 472.993,170.092 473.659,175.926 473.5,182C 473.499,186.015 473.165,189.849 472.5,193.5C 472.578,183.815 472.245,174.148 471.5,164.5 Z"/></g>
<g><path style="opacity:1" fill="#465569" d="M 740.5,285.5 C 741.951,300.535 741.618,315.535 739.5,330.5C 721.864,313.928 700.864,304.595 676.5,302.5C 665.705,300.856 655.038,301.522 644.5,304.5C 601.486,316.347 574.986,344.014 565,387.5C 560.327,431.13 575.494,465.796 610.5,491.5C 596.823,496.114 582.823,499.447 568.5,501.5C 565.369,498.871 562.369,496.038 559.5,493C 558.333,492.833 557.167,492.667 556,492.5C 544.515,495.11 533.015,497.777 521.5,500.5C 520.558,500.392 519.725,500.059 519,499.5C 513.56,489.62 508.394,479.62 503.5,469.5C 505.571,465.921 508.238,462.754 511.5,460C 518.333,453.833 525.167,447.667 532,441.5C 532.667,438.833 532.667,436.167 532,433.5C 530.378,428.968 529.378,424.301 529,419.5C 516.358,414.099 503.524,409.099 490.5,404.5C 490.833,399.167 491.167,393.833 491.5,388.5C 492.565,382.211 493.398,375.877 494,369.5C 494.833,368.667 495.667,367.833 496.5,367C 508.818,364.75 521.151,362.417 533.5,360C 534.308,359.692 534.975,359.192 535.5,358.5C 538.893,352.425 541.06,346.092 542,339.5C 534.909,329.654 527.576,319.987 520,310.5C 519.219,309.056 519.386,307.723 520.5,306.5C 526.574,299.349 532.407,292.016 538,284.5C 539.719,282.443 541.719,280.776 544,279.5C 554.774,284.471 565.608,289.304 576.5,294C 579.303,294.755 581.97,294.422 584.5,293C 587.736,290.132 591.236,287.632 595,285.5C 595.77,277.452 595.603,269.452 594.5,261.5C 594.167,256.167 593.833,250.833 593.5,245.5C 593.953,244.542 594.619,243.708 595.5,243C 605.5,239.667 615.5,236.333 625.5,233C 627.167,232.333 628.833,232.333 630.5,233C 637.369,241.903 643.869,251.07 650,260.5C 651.516,263.355 653.85,265.022 657,265.5C 661.477,264.82 665.977,264.32 670.5,264C 677.069,252.869 683.402,241.536 689.5,230C 691.5,229.333 693.5,229.333 695.5,230C 705.951,233.446 716.617,235.946 727.5,237.5C 728.481,251.148 729.314,264.815 730,278.5C 733.271,281.216 736.771,283.549 740.5,285.5 Z"/></g>
<g><path style="opacity:1" fill="#bcc2c8" d="M 593.5,245.5 C 593.833,250.833 594.167,256.167 594.5,261.5C 592.689,256.221 592.356,250.888 593.5,245.5 Z"/></g>
<g><path style="opacity:1" fill="#fefefd" d="M 676.5,302.5 C 700.864,304.595 721.864,313.928 739.5,330.5C 727.176,408.816 684.176,462.483 610.5,491.5C 575.494,465.796 560.327,431.13 565,387.5C 574.986,344.014 601.486,316.347 644.5,304.5C 655.106,303.022 665.773,302.355 676.5,302.5 Z"/></g>
<g><path style="opacity:1" fill="#bfc5c9" d="M 676.5,302.5 C 665.773,302.355 655.106,303.022 644.5,304.5C 655.038,301.522 665.705,300.856 676.5,302.5 Z"/></g>
<g><path style="opacity:1" fill="#bac1c8" d="M 375.5,337.5 C 381.409,338.455 387.409,338.789 393.5,338.5C 390.686,339.165 387.686,339.498 384.5,339.5C 381.087,339.483 378.087,338.816 375.5,337.5 Z"/></g>
<g><path style="opacity:1" fill="#afb7bf" d="M 491.5,388.5 C 491.167,393.833 490.833,399.167 490.5,404.5C 489.356,399.112 489.689,393.779 491.5,388.5 Z"/></g>
</svg>
